<svg xmlns="http://www.w3.org/2000/svg" xmlns:xlink="http://www.w3.org/1999/xlink" width="1920" zoomAndPan="magnify" viewBox="0 0 1440 809.999993" height="1080" preserveAspectRatio="xMidYMid meet" version="1.0"><defs><g/></defs><g fill="#ffffff" fill-opacity="1"><g transform="translate(23.737229, 480.580862)"><g><path d="M 122.875 -170.84375 C 148.519531 -170.84375 167.84375 -165.925781 180.84375 -156.09375 C 193.84375 -146.257812 200.34375 -131.847656 200.34375 -112.859375 C 200.34375 -103.460938 198.628906 -92.609375 195.203125 -80.296875 C 189.566406 -60.453125 181.957031 -44.710938 172.375 -33.078125 C 162.800781 -21.453125 150.191406 -12.988281 134.546875 -7.6875 C 118.898438 -2.394531 98.847656 0.164062 74.390625 0 L 4.625 -0.25 C 1.03125 -0.25 -1.75 -0.847656 -3.71875 -2.046875 C -5.6875 -3.242188 -6.671875 -4.867188 -6.671875 -6.921875 C -6.671875 -7.953125 -6.414062 -9.066406 -5.90625 -10.265625 C -5.382812 -11.796875 -4.65625 -12.90625 -3.71875 -13.59375 C -2.78125 -14.28125 -1.367188 -15.222656 0.515625 -16.421875 C 3.253906 -17.953125 5.429688 -19.660156 7.046875 -21.546875 C 8.671875 -23.429688 10.082031 -26.425781 11.28125 -30.53125 L 42.578125 -140.828125 C 43.265625 -143.046875 43.609375 -145.179688 43.609375 -147.234375 C 43.609375 -149.117188 43.304688 -150.703125 42.703125 -151.984375 C 42.109375 -153.265625 41.296875 -154.757812 40.265625 -156.46875 C 38.734375 -158.695312 37.96875 -160.492188 37.96875 -161.859375 C 37.96875 -162.367188 38.140625 -163.3125 38.484375 -164.6875 C 39.160156 -166.90625 40.648438 -168.484375 42.953125 -169.421875 C 45.265625 -170.367188 48.816406 -170.84375 53.609375 -170.84375 Z M 129.546875 -85.9375 C 133.984375 -102.007812 136.203125 -114.660156 136.203125 -123.890625 C 136.203125 -132.960938 134.320312 -139.207031 130.5625 -142.625 C 126.800781 -146.039062 121.414062 -147.75 114.40625 -147.75 L 108.765625 -147.75 L 74.140625 -23.09375 L 80.296875 -23.09375 C 88.160156 -23.09375 94.785156 -24.757812 100.171875 -28.09375 C 105.554688 -31.425781 110.554688 -37.582031 115.171875 -46.5625 C 119.785156 -55.539062 124.578125 -68.664062 129.546875 -85.9375 Z M 129.546875 -85.9375 "/></g></g></g><g fill="#ffffff" fill-opacity="1"><g transform="translate(221.747838, 480.580862)"><g><path d="M 167.5 -170.84375 C 173.832031 -170.84375 178.75 -169.472656 182.25 -166.734375 C 185.757812 -163.992188 187.515625 -160.234375 187.515625 -155.453125 C 187.515625 -153.054688 187.171875 -150.742188 186.484375 -148.515625 L 179.8125 -124.671875 C 178.613281 -120.046875 176.859375 -116.835938 174.546875 -115.046875 C 172.242188 -113.253906 168.957031 -112.359375 164.6875 -112.359375 C 160.582031 -112.359375 157.375 -113.253906 155.0625 -115.046875 C 152.75 -116.835938 151 -119.785156 149.8125 -123.890625 L 145.703125 -138.515625 C 144.847656 -141.597656 143.820312 -143.648438 142.625 -144.671875 C 141.425781 -145.703125 139.117188 -146.21875 135.703125 -146.21875 L 108.765625 -146.21875 L 95.9375 -100.546875 L 107.21875 -100.546875 C 108.414062 -100.546875 110.039062 -101.40625 112.09375 -103.125 L 120.8125 -110.8125 C 123.382812 -113.039062 125.609375 -114.664062 127.484375 -115.6875 C 129.367188 -116.71875 131.679688 -117.234375 134.421875 -117.234375 C 137.492188 -117.234375 140.015625 -116.421875 141.984375 -114.796875 C 143.953125 -113.171875 144.9375 -111.070312 144.9375 -108.5 C 144.9375 -107.820312 144.765625 -106.796875 144.421875 -105.421875 L 133.90625 -69.765625 C 132.875 -66.003906 131.117188 -63.222656 128.640625 -61.421875 C 126.160156 -59.628906 123.46875 -58.734375 120.5625 -58.734375 C 115.769531 -58.734375 112.175781 -61.21875 109.78125 -66.1875 L 105.421875 -75.15625 C 104.222656 -77.71875 102.34375 -79 99.78125 -79 L 89.78125 -79 L 74.640625 -24.625 L 97.21875 -24.625 C 100.46875 -24.625 103.332031 -25.265625 105.8125 -26.546875 C 108.289062 -27.828125 110.984375 -30.09375 113.890625 -33.34375 L 129.28125 -50.28125 C 132.019531 -53.1875 134.628906 -55.28125 137.109375 -56.5625 C 139.585938 -57.84375 142.625 -58.484375 146.21875 -58.484375 C 149.976562 -58.484375 153.054688 -57.628906 155.453125 -55.921875 C 157.847656 -54.210938 159.046875 -51.644531 159.046875 -48.21875 C 159.046875 -46.851562 158.785156 -45.226562 158.265625 -43.34375 L 150.828125 -17.4375 C 148.953125 -10.945312 146.21875 -6.414062 142.625 -3.84375 C 139.03125 -1.28125 133.8125 0 126.96875 0 L 4.625 0 C 1.03125 0 -1.75 -0.597656 -3.71875 -1.796875 C -5.6875 -2.992188 -6.671875 -4.617188 -6.671875 -6.671875 C -6.671875 -7.691406 -6.414062 -8.800781 -5.90625 -10 C -5.21875 -11.882812 -4.101562 -13.335938 -2.5625 -14.359375 C -1.019531 -15.390625 -0.0820312 -15.988281 0.25 -16.15625 C 2.988281 -17.863281 5.210938 -19.613281 6.921875 -21.40625 C 8.628906 -23.207031 10.082031 -26.160156 11.28125 -30.265625 L 42.84375 -140.828125 C 43.519531 -143.046875 43.859375 -145.097656 43.859375 -146.984375 C 43.859375 -149.035156 43.554688 -150.742188 42.953125 -152.109375 C 42.359375 -153.484375 41.460938 -154.9375 40.265625 -156.46875 C 38.734375 -158.695312 37.96875 -160.492188 37.96875 -161.859375 C 37.96875 -162.367188 38.140625 -163.3125 38.484375 -164.6875 C 39.160156 -166.90625 40.695312 -168.484375 43.09375 -169.421875 C 45.488281 -170.367188 48.992188 -170.84375 53.609375 -170.84375 Z M 167.5 -170.84375 "/></g></g></g><g fill="#ffffff" fill-opacity="1"><g transform="translate(393.852914, 480.580862)"><g><path d="M 218.296875 -146.21875 C 218.296875 -140.0625 216.96875 -134.757812 214.3125 -130.3125 C 211.664062 -125.863281 208.289062 -122.484375 204.1875 -120.171875 C 200.082031 -117.867188 195.976562 -116.71875 191.875 -116.71875 C 187.769531 -116.71875 184.050781 -117.570312 180.71875 -119.28125 C 177.382812 -120.988281 174.601562 -123.296875 172.375 -126.203125 L 110.5625 -22.0625 C 105.9375 -14.195312 101.65625 -8.550781 97.71875 -5.125 C 93.789062 -1.707031 89.347656 0 84.390625 0 C 79.085938 0 74.851562 -1.75 71.6875 -5.25 C 68.53125 -8.757812 66.269531 -14.363281 64.90625 -22.0625 L 43.34375 -140.578125 C 42.832031 -143.648438 41.894531 -146.125 40.53125 -148 C 39.164062 -149.882812 37.367188 -151.941406 35.140625 -154.171875 C 33.429688 -155.703125 32.234375 -156.9375 31.546875 -157.875 C 30.867188 -158.820312 30.53125 -159.976562 30.53125 -161.34375 C 29.675781 -167.675781 33.4375 -170.84375 41.8125 -170.84375 L 105.9375 -170.84375 C 109.875 -170.84375 112.867188 -170.03125 114.921875 -168.40625 C 116.972656 -166.78125 117.910156 -164.597656 117.734375 -161.859375 C 117.734375 -160.316406 117.429688 -159.03125 116.828125 -158 C 116.234375 -156.976562 115.253906 -155.703125 113.890625 -154.171875 C 112.347656 -152.453125 111.148438 -150.820312 110.296875 -149.28125 C 109.441406 -147.75 109.015625 -145.875 109.015625 -143.65625 C 109.015625 -142.625 109.101562 -141.765625 109.28125 -141.078125 L 119.015625 -81.3125 L 153.140625 -141.859375 C 159.128906 -152.796875 165.03125 -160.53125 170.84375 -165.0625 C 176.65625 -169.59375 183.835938 -171.859375 192.390625 -171.859375 C 200.253906 -171.859375 206.535156 -169.59375 211.234375 -165.0625 C 215.941406 -160.53125 218.296875 -154.25 218.296875 -146.21875 Z M 218.296875 -146.21875 "/></g></g></g><g fill="#ffa323" fill-opacity="1"><g transform="translate(581.863582, 480.580862)"><g><path d="M 138.265625 -170.84375 C 156.390625 -170.84375 170.367188 -166.90625 180.203125 -159.03125 C 190.035156 -151.164062 194.953125 -140.738281 194.953125 -127.75 C 194.953125 -122.613281 194.179688 -117.222656 192.640625 -111.578125 C 187.847656 -94.484375 178.398438 -81.832031 164.296875 -73.625 C 150.191406 -65.414062 132.363281 -61.3125 110.8125 -61.3125 L 84.390625 -61.3125 L 75.671875 -30.265625 C 75.328125 -29.242188 75.15625 -27.878906 75.15625 -26.171875 C 75.15625 -23.773438 75.710938 -21.804688 76.828125 -20.265625 C 77.941406 -18.722656 79.609375 -16.925781 81.828125 -14.875 C 83.710938 -13.164062 84.992188 -11.882812 85.671875 -11.03125 C 86.359375 -10.175781 86.703125 -9.148438 86.703125 -7.953125 C 86.703125 -5.046875 85.332031 -2.992188 82.59375 -1.796875 C 79.863281 -0.597656 75.847656 0 70.546875 0 L 6.15625 0 C 1.707031 0 -1.625 -0.8125 -3.84375 -2.4375 C -6.070312 -4.0625 -6.84375 -6.328125 -6.15625 -9.234375 C -5.8125 -10.773438 -5.171875 -12.015625 -4.234375 -12.953125 C -3.296875 -13.890625 -1.882812 -14.957031 0 -16.15625 C 2.90625 -17.863281 5.210938 -19.660156 6.921875 -21.546875 C 8.628906 -23.429688 10 -26.335938 11.03125 -30.265625 L 42.328125 -140.828125 C 43.003906 -143.046875 43.34375 -145.179688 43.34375 -147.234375 C 43.34375 -149.117188 43.046875 -150.703125 42.453125 -151.984375 C 41.859375 -153.265625 41.046875 -154.757812 40.015625 -156.46875 C 38.472656 -158.695312 37.703125 -160.492188 37.703125 -161.859375 C 37.703125 -162.367188 37.875 -163.3125 38.21875 -164.6875 C 38.90625 -166.90625 40.398438 -168.484375 42.703125 -169.421875 C 45.015625 -170.367188 48.566406 -170.84375 53.359375 -170.84375 Z M 131.59375 -116.203125 C 133.476562 -122.523438 134.421875 -128.082031 134.421875 -132.875 C 134.421875 -142.789062 129.800781 -147.75 120.5625 -147.75 L 109.015625 -147.75 L 90.8125 -84.390625 L 102.09375 -84.390625 C 109.269531 -84.390625 115.125 -86.65625 119.65625 -91.1875 C 124.195312 -95.71875 128.175781 -104.054688 131.59375 -116.203125 Z M 131.59375 -116.203125 "/></g></g></g><g fill="#ffa323" fill-opacity="1"><g transform="translate(757.046523, 480.580862)"><g><path d="M 113.890625 -170.84375 C 117.484375 -170.84375 120.257812 -170.285156 122.21875 -169.171875 C 124.1875 -168.054688 125.171875 -166.472656 125.171875 -164.421875 C 125.171875 -163.566406 124.914062 -162.457031 124.40625 -161.09375 C 123.894531 -159.894531 123.164062 -158.820312 122.21875 -157.875 C 121.28125 -156.9375 120.425781 -156.253906 119.65625 -155.828125 C 118.894531 -155.398438 118.34375 -155.015625 118 -154.671875 C 115.257812 -153.140625 113.035156 -151.429688 111.328125 -149.546875 C 109.617188 -147.671875 108.164062 -144.765625 106.96875 -140.828125 L 75.921875 -30.265625 C 75.242188 -28.046875 74.90625 -25.910156 74.90625 -23.859375 C 74.90625 -21.804688 75.203125 -20.09375 75.796875 -18.71875 C 76.398438 -17.351562 77.300781 -15.898438 78.5 -14.359375 C 80.03125 -12.140625 80.796875 -10.347656 80.796875 -8.984375 C 80.796875 -8.640625 80.628906 -7.78125 80.296875 -6.40625 C 79.609375 -4.019531 78.066406 -2.351562 75.671875 -1.40625 C 73.273438 -0.46875 69.6875 0 64.90625 0 L 4.625 0 C 1.03125 0 -1.75 -0.597656 -3.71875 -1.796875 C -5.6875 -2.992188 -6.671875 -4.617188 -6.671875 -6.671875 C -6.671875 -7.691406 -6.414062 -8.800781 -5.90625 -10 C -5.21875 -11.882812 -4.101562 -13.335938 -2.5625 -14.359375 C -1.019531 -15.390625 -0.0820312 -15.988281 0.25 -16.15625 C 2.988281 -17.863281 5.210938 -19.613281 6.921875 -21.40625 C 8.628906 -23.207031 10.082031 -26.160156 11.28125 -30.265625 L 42.578125 -140.828125 C 43.265625 -143.046875 43.609375 -145.179688 43.609375 -147.234375 C 43.609375 -149.117188 43.304688 -150.703125 42.703125 -151.984375 C 42.109375 -153.265625 41.296875 -154.757812 40.265625 -156.46875 C 38.734375 -158.695312 37.96875 -160.492188 37.96875 -161.859375 C 37.96875 -162.367188 38.140625 -163.3125 38.484375 -164.6875 C 39.160156 -166.90625 40.648438 -168.484375 42.953125 -169.421875 C 45.265625 -170.367188 48.816406 -170.84375 53.609375 -170.84375 Z M 113.890625 -170.84375 "/></g></g></g><g fill="#ffa323" fill-opacity="1"><g transform="translate(860.668653, 480.580862)"><g><path d="M 181.359375 -170.84375 C 187.003906 -170.84375 191.535156 -169.34375 194.953125 -166.34375 C 198.367188 -163.351562 200.078125 -159.550781 200.078125 -154.9375 C 200.078125 -148.4375 196.914062 -142.023438 190.59375 -135.703125 L 79.265625 -24.625 L 109.53125 -24.625 C 112.78125 -24.625 115.644531 -25.265625 118.125 -26.546875 C 120.601562 -27.828125 123.296875 -30.09375 126.203125 -33.34375 L 141.59375 -50.28125 C 144.332031 -53.1875 146.941406 -55.28125 149.421875 -56.5625 C 151.898438 -57.84375 154.9375 -58.484375 158.53125 -58.484375 C 162.289062 -58.484375 165.367188 -57.628906 167.765625 -55.921875 C 170.160156 -54.210938 171.359375 -51.644531 171.359375 -48.21875 C 171.359375 -46.851562 171.097656 -45.226562 170.578125 -43.34375 L 163.140625 -17.4375 C 161.265625 -10.945312 158.53125 -6.414062 154.9375 -3.84375 C 151.34375 -1.28125 146.125 0 139.28125 0 L 24.375 0 C 17.019531 0 11.503906 -1.492188 7.828125 -4.484375 C 4.148438 -7.484375 2.3125 -11.546875 2.3125 -16.671875 C 2.3125 -19.753906 3.125 -22.789062 4.75 -25.78125 C 6.375 -28.769531 8.976562 -32.144531 12.5625 -35.90625 L 116.96875 -146.21875 L 93.109375 -146.21875 C 89.859375 -146.21875 86.992188 -145.570312 84.515625 -144.28125 C 82.035156 -143 79.34375 -140.738281 76.4375 -137.5 L 61.046875 -120.5625 C 58.316406 -117.65625 55.707031 -115.5625 53.21875 -114.28125 C 50.738281 -113 47.707031 -112.359375 44.125 -112.359375 C 40.363281 -112.359375 37.285156 -113.210938 34.890625 -114.921875 C 32.492188 -116.628906 31.296875 -119.191406 31.296875 -122.609375 C 31.296875 -124.148438 31.550781 -125.773438 32.0625 -127.484375 L 39.5 -153.390625 C 41.382812 -159.890625 44.117188 -164.421875 47.703125 -166.984375 C 51.296875 -169.554688 56.515625 -170.84375 63.359375 -170.84375 Z M 181.359375 -170.84375 "/></g></g></g><g fill="#ffa323" fill-opacity="1"><g transform="translate(1048.932621, 480.580862)"><g><path d="M 181.359375 -170.84375 C 187.003906 -170.84375 191.535156 -169.34375 194.953125 -166.34375 C 198.367188 -163.351562 200.078125 -159.550781 200.078125 -154.9375 C 200.078125 -148.4375 196.914062 -142.023438 190.59375 -135.703125 L 79.265625 -24.625 L 109.53125 -24.625 C 112.78125 -24.625 115.644531 -25.265625 118.125 -26.546875 C 120.601562 -27.828125 123.296875 -30.09375 126.203125 -33.34375 L 141.59375 -50.28125 C 144.332031 -53.1875 146.941406 -55.28125 149.421875 -56.5625 C 151.898438 -57.84375 154.9375 -58.484375 158.53125 -58.484375 C 162.289062 -58.484375 165.367188 -57.628906 167.765625 -55.921875 C 170.160156 -54.210938 171.359375 -51.644531 171.359375 -48.21875 C 171.359375 -46.851562 171.097656 -45.226562 170.578125 -43.34375 L 163.140625 -17.4375 C 161.265625 -10.945312 158.53125 -6.414062 154.9375 -3.84375 C 151.34375 -1.28125 146.125 0 139.28125 0 L 24.375 0 C 17.019531 0 11.503906 -1.492188 7.828125 -4.484375 C 4.148438 -7.484375 2.3125 -11.546875 2.3125 -16.671875 C 2.3125 -19.753906 3.125 -22.789062 4.75 -25.78125 C 6.375 -28.769531 8.976562 -32.144531 12.5625 -35.90625 L 116.96875 -146.21875 L 93.109375 -146.21875 C 89.859375 -146.21875 86.992188 -145.570312 84.515625 -144.28125 C 82.035156 -143 79.34375 -140.738281 76.4375 -137.5 L 61.046875 -120.5625 C 58.316406 -117.65625 55.707031 -115.5625 53.21875 -114.28125 C 50.738281 -113 47.707031 -112.359375 44.125 -112.359375 C 40.363281 -112.359375 37.285156 -113.210938 34.890625 -114.921875 C 32.492188 -116.628906 31.296875 -119.191406 31.296875 -122.609375 C 31.296875 -124.148438 31.550781 -125.773438 32.0625 -127.484375 L 39.5 -153.390625 C 41.382812 -159.890625 44.117188 -164.421875 47.703125 -166.984375 C 51.296875 -169.554688 56.515625 -170.84375 63.359375 -170.84375 Z M 181.359375 -170.84375 "/></g></g></g><g fill="#ffa323" fill-opacity="1"><g transform="translate(1237.19659, 480.580862)"><g><path d="M 156.734375 -30.265625 C 156.046875 -28.046875 155.703125 -25.820312 155.703125 -23.59375 C 155.703125 -21.71875 155.957031 -20.140625 156.46875 -18.859375 C 156.988281 -17.578125 157.546875 -16.550781 158.140625 -15.78125 C 158.742188 -15.007812 159.128906 -14.453125 159.296875 -14.109375 C 161.003906 -12.398438 161.859375 -10.691406 161.859375 -8.984375 C 161.859375 -8.640625 161.6875 -7.78125 161.34375 -6.40625 C 160.664062 -4.019531 159.171875 -2.351562 156.859375 -1.40625 C 154.546875 -0.46875 151 0 146.21875 0 L 85.421875 0 C 81.828125 0 79.046875 -0.597656 77.078125 -1.796875 C 75.117188 -2.992188 74.140625 -4.617188 74.140625 -6.671875 C 74.140625 -7.691406 74.394531 -8.800781 74.90625 -10 C 75.414062 -11.375 76.140625 -12.441406 77.078125 -13.203125 C 78.023438 -13.972656 79.351562 -14.875 81.0625 -15.90625 C 83.789062 -17.445312 86.007812 -19.15625 87.71875 -21.03125 C 89.4375 -22.914062 90.894531 -25.992188 92.09375 -30.265625 L 98.765625 -52.328125 L 58.734375 -52.328125 L 51.8125 -37.703125 C 48.90625 -31.378906 47.453125 -26.421875 47.453125 -22.828125 C 47.453125 -20.773438 47.789062 -19.109375 48.46875 -17.828125 C 49.15625 -16.546875 50.1875 -15.222656 51.5625 -13.859375 C 52.757812 -12.484375 53.570312 -11.328125 54 -10.390625 C 54.425781 -9.453125 54.46875 -8.210938 54.125 -6.671875 C 53.4375 -4.109375 52.023438 -2.351562 49.890625 -1.40625 C 47.753906 -0.46875 44.378906 0 39.765625 0 L 1.546875 0 C -2.390625 0 -5.382812 -0.722656 -7.4375 -2.171875 C -9.488281 -3.628906 -10.515625 -5.554688 -10.515625 -7.953125 C -10.515625 -10.691406 -9.53125 -12.875 -7.5625 -14.5 C -5.601562 -16.125 -2.65625 -17.875 1.28125 -19.75 C 6.414062 -22.3125 10.519531 -24.832031 13.59375 -27.3125 C 16.675781 -29.789062 19.328125 -33.253906 21.546875 -37.703125 L 67.203125 -132.359375 C 74.210938 -147.066406 82.460938 -157.710938 91.953125 -164.296875 C 101.453125 -170.878906 113.984375 -174.171875 129.546875 -174.171875 C 146.984375 -174.171875 160.488281 -170.625 170.0625 -163.53125 C 179.644531 -156.4375 184.4375 -146.5625 184.4375 -133.90625 C 184.4375 -128.601562 183.582031 -123.128906 181.875 -117.484375 Z M 106.453125 -77.984375 L 120.046875 -123.125 C 120.734375 -125.175781 121.078125 -127.316406 121.078125 -129.546875 C 121.078125 -132.796875 120.175781 -135.226562 118.375 -136.84375 C 116.582031 -138.46875 114.0625 -139.28125 110.8125 -139.28125 C 106.707031 -139.28125 103.203125 -138.082031 100.296875 -135.6875 C 97.390625 -133.300781 94.484375 -129.03125 91.578125 -122.875 L 70.546875 -77.984375 Z M 106.453125 -77.984375 "/></g></g></g></svg>